<svg width="171" height="164" viewBox="0 0 171 164" fill="none" xmlns="http://www.w3.org/2000/svg">
<g id="&#208;&#161;&#208;&#181;&#209;&#128;&#208;&#176;&#209;&#143; &#208;&#183;&#208;&#178;&#208;&#181;&#208;&#183;&#208;&#180;&#208;&#176;">
<path id="&#208;&#151;&#208;&#178;&#208;&#181;&#208;&#183;&#208;&#180;&#208;&#176;" d="M132.209 164C130.177 164 128.155 163.375 126.415 162.129L85.501 132.714L44.5869 162.129C42.8918 163.352 40.8546 164.006 38.7664 163.999C36.6782 163.992 34.6456 163.323 32.959 162.089C31.2707 160.862 30.0115 159.132 29.3605 157.146C28.7094 155.16 28.6997 153.019 29.3328 151.027L44.5919 101.656L4.04497 73.0122C2.36456 71.769 1.11658 70.0275 0.477575 68.0342C-0.161433 66.0409 -0.15913 63.8967 0.48416 61.9047C1.13252 59.9176 2.38741 58.1851 4.07147 56.9519C5.75553 55.7187 7.78359 55.0473 9.86901 55.0325L60.0875 54.9569L76.076 6.81092C76.7358 4.82753 78.0013 3.1025 79.6933 1.88013C81.3853 0.657761 83.418 0 85.5035 0C87.5891 0 89.6218 0.657761 91.3138 1.88013C93.0058 3.1025 94.2713 4.82753 94.9312 6.81092L110.648 54.9569L161.123 55.0325C163.211 55.0443 165.242 55.7154 166.928 56.9504C168.614 58.1855 169.868 59.9216 170.514 61.9123C171.159 63.903 171.162 66.0469 170.523 68.0395C169.884 70.0321 168.634 71.7721 166.952 73.0122L126.405 101.656L141.664 151.027C142.299 153.018 142.29 155.159 141.64 157.146C140.99 159.132 139.731 160.862 138.043 162.089C136.351 163.333 134.307 164.003 132.209 164Z" fill="#CEC9C1"/>
</g>
</svg>
