<svg width="175" height="174" viewBox="0 0 175 174" fill="none" xmlns="http://www.w3.org/2000/svg">
<path id="Vector" d="M135.066 173.812C132.99 173.812 130.925 173.15 129.147 171.83L87.3487 140.655L45.5504 171.83C43.8187 173.125 41.7375 173.819 39.6042 173.811C37.4708 173.804 35.3943 173.095 33.6712 171.787C31.9465 170.486 30.6601 168.653 29.995 166.548C29.3299 164.443 29.3199 162.174 29.9666 160.063L45.5556 107.738L4.13238 77.3806C2.41565 76.0629 1.14071 74.2173 0.487895 72.1047C-0.164922 69.9922 -0.162569 67.7196 0.494623 65.6085C1.157 63.5025 2.43901 61.6663 4.15946 60.3593C5.87991 59.0524 7.95179 58.3408 10.0823 58.3251L61.386 58.245L77.7199 7.21842C78.394 5.11636 79.6869 3.28813 81.4155 1.99262C83.144 0.697115 85.2207 0 87.3513 0C89.4819 0 91.5586 0.697115 93.2871 1.99262C95.0157 3.28813 96.3085 5.11636 96.9826 7.21842L113.039 58.245L164.605 58.3251C166.738 58.3376 168.813 59.0489 170.535 60.3578C172.257 61.6667 173.539 63.5068 174.198 65.6165C174.858 67.7263 174.861 69.9985 174.208 72.1103C173.555 74.2222 172.278 76.0662 170.56 77.3806L129.137 107.738L144.726 160.063C145.374 162.173 145.365 164.443 144.701 166.548C144.037 168.653 142.751 170.486 141.026 171.787C139.298 173.105 137.21 173.815 135.066 173.812Z" fill="#FFAC33"/>
</svg>
