<svg width="30" height="12" viewBox="0 0 30 12" fill="none" xmlns="http://www.w3.org/2000/svg">
<path id="Arrow 1" d="M0.752442 4.90371C0.340063 4.90371 0.00576469 5.23801 0.0057646 5.65039C0.00576452 6.06277 0.340063 6.39707 0.752441 6.39707L0.752442 4.90371ZM29.3236 6.17837C29.6152 5.88678 29.6152 5.41401 29.3236 5.12241L24.5718 0.370589C24.2802 0.0789937 23.8074 0.0789937 23.5158 0.370589C23.2242 0.662185 23.2242 1.13495 23.5158 1.42655L27.7396 5.65039L23.5158 9.87423C23.2242 10.1658 23.2242 10.6386 23.5158 10.9302C23.8074 11.2218 24.2802 11.2218 24.5717 10.9302L29.3236 6.17837ZM0.752441 6.39707L28.7956 6.39707L28.7956 4.90371L0.752442 4.90371L0.752441 6.39707Z" fill="white"/>
</svg>
