<svg width="30" height="21" viewBox="0 0 30 21" fill="none" xmlns="http://www.w3.org/2000/svg">
<g id="Group">
<g id="Group_2">
<path id="Vector" d="M28.2045 2.4159C27.4223 1.02459 26.5735 0.768677 24.8452 0.671358C23.1186 0.554214 18.7771 0.505554 15.0159 0.505554C11.2475 0.505554 6.90415 0.554214 5.17943 0.669556C3.45471 0.768677 2.60407 1.02279 1.8147 2.4159C1.00911 3.8054 0.594604 6.19874 0.594604 10.4123C0.594604 10.4159 0.594604 10.4177 0.594604 10.4177C0.594604 10.4213 0.594604 10.4231 0.594604 10.4231V10.4267C0.594604 14.6223 1.00911 17.0336 1.8147 18.4087C2.60407 19.8 3.45291 20.0523 5.17763 20.1695C6.90415 20.2704 11.2475 20.3299 15.0159 20.3299C18.7771 20.3299 23.1186 20.2704 24.847 20.1713C26.5753 20.0541 27.4241 19.8018 28.2063 18.4105C29.0191 17.0354 29.43 14.6241 29.43 10.4285C29.43 10.4285 29.43 10.4231 29.43 10.4195C29.43 10.4195 29.43 10.4159 29.43 10.4141C29.43 6.19874 29.0191 3.8054 28.2045 2.4159ZM11.4079 15.8244V5.01108L20.4189 10.4177L11.4079 15.8244Z" fill="#51511B"/>
</g>
</g>
</svg>
