<svg width="30" height="25" viewBox="0 0 30 25" fill="none" xmlns="http://www.w3.org/2000/svg">
<g id="Group">
<g id="Group_2">
<path id="Vector" d="M29.5651 3.47691C28.4928 3.94729 27.3502 4.25907 26.1589 4.41046C27.3844 3.67876 28.3198 2.52895 28.7595 1.14305C27.6169 1.82428 26.3554 2.30547 25.0109 2.574C23.926 1.41879 22.3797 0.703308 20.6928 0.703308C17.42 0.703308 14.7852 3.35977 14.7852 6.61637C14.7852 7.08494 14.8248 7.53549 14.9222 7.96442C10.0075 7.72472 5.65879 5.36923 2.7374 1.78103C2.22737 2.66592 1.92821 3.67876 1.92821 4.7691C1.92821 6.81641 2.9825 8.63124 4.55403 9.68193C3.60426 9.6639 2.67252 9.38817 1.88315 8.95383C1.88315 8.97186 1.88315 8.99528 1.88315 9.01871C1.88315 11.8914 3.93227 14.2776 6.61936 14.8272C6.13817 14.9588 5.61373 15.0219 5.06946 15.0219C4.691 15.0219 4.30893 15.0003 3.95029 14.921C4.71623 17.262 6.8897 18.9831 9.47407 19.039C7.4628 20.6123 4.90907 21.5603 2.14447 21.5603C1.65968 21.5603 1.19471 21.5387 0.729736 21.4792C3.34835 23.1679 6.45176 24.1321 9.79847 24.1321C20.6766 24.1321 26.6239 15.121 26.6239 7.31022C26.6239 7.0489 26.6149 6.79659 26.6023 6.54608C27.7755 5.71346 28.7613 4.67358 29.5651 3.47691Z" fill="#51511B"/>
</g>
</g>
</svg>
