<svg width="29" height="29" viewBox="0 0 29 29" fill="none" xmlns="http://www.w3.org/2000/svg">
<g id="facebook" clip-path="url(#clip0_14_262)">
<path id="Vector" d="M26.7558 0H2.07963C0.931025 0 0 0.931025 0 2.07963V26.7558C0 27.9044 0.931025 28.8354 2.07963 28.8354H15.4033V17.6842H11.6581V13.3195H15.4033V10.1073C15.4033 6.38232 17.6774 4.35483 21.0002 4.35483C22.5917 4.35483 23.9594 4.47341 24.358 4.52643V8.41971H22.0668C20.2588 8.41971 19.9088 9.27879 19.9088 10.5396V13.3195H24.2313L23.6681 17.6842H19.9088V28.8354H26.7558C27.9044 28.8354 28.8354 27.9044 28.8354 26.7558V2.07963C28.8354 0.931025 27.9044 0 26.7558 0V0Z" fill="#51511B"/>
</g>
<defs>
<clipPath id="clip0_14_262">
<rect width="28.8354" height="28.8354" fill="white"/>
</clipPath>
</defs>
</svg>
