<svg width="30" height="29" viewBox="0 0 30 29" fill="none" xmlns="http://www.w3.org/2000/svg">
<g id="Group">
<path id="Vector" d="M28.6126 1.08901C27.8867 0.362895 27.0168 0 26.0033 0H4.5643C3.5505 0 2.68085 0.363026 1.95473 1.08901C1.22874 1.8148 0.865845 2.68459 0.865845 3.69819V25.137C0.865845 26.1505 1.22867 27.0205 1.95473 27.7463C2.68085 28.4722 3.5507 28.8354 4.5643 28.8354H26.003C27.0163 28.8354 27.8865 28.4722 28.6124 27.7463C29.3385 27.0205 29.7011 26.1505 29.7011 25.137V3.69819C29.701 2.6844 29.3385 1.81507 28.6126 1.08901ZM11.2195 10.3907C12.352 9.2958 13.7131 8.74808 15.3026 8.74808C16.9044 8.74808 18.2716 9.2958 19.4044 10.3907C20.5372 11.4859 21.1033 12.8095 21.1033 14.3613C21.1033 15.913 20.5372 17.2367 19.4044 18.3315C18.2716 19.4269 16.9048 19.9745 15.3026 19.9745C13.7132 19.9745 12.3522 19.4264 11.2195 18.3315C10.0867 17.2366 9.52035 15.913 9.52035 14.3613C9.52035 12.8095 10.0867 11.4859 11.2195 10.3907ZM26.4351 24.3676C26.4351 24.6928 26.3221 24.9649 26.0971 25.184C25.8713 25.403 25.6027 25.5125 25.2895 25.5125H5.22144C4.89609 25.5125 4.62367 25.403 4.40484 25.184C4.18569 24.9653 4.07621 24.6928 4.07621 24.3676V12.2023H6.72312C6.47293 12.9908 6.3478 13.8107 6.3478 14.6616C6.3478 17.0651 7.22377 19.1141 8.97591 20.8103C10.7283 22.5058 12.837 23.354 15.3025 23.354C16.9296 23.354 18.4313 22.9658 19.8084 22.1899C21.1851 21.4136 22.2733 20.3594 23.0748 19.0264C23.8759 17.6934 24.2764 16.2384 24.2764 14.6616C24.2764 13.8108 24.1508 12.9911 23.9006 12.2023H26.4352V24.3677H26.4351V24.3676ZM26.4351 7.60284C26.4351 7.9658 26.31 8.27248 26.0593 8.52274C25.8091 8.77319 25.5026 8.89826 25.1394 8.89826H21.8731C21.5103 8.89826 21.2033 8.77313 20.9532 8.52274C20.7029 8.27248 20.5778 7.9658 20.5778 7.60284V4.50558C20.5778 4.15511 20.7029 3.85166 20.9532 3.59502C21.2034 3.33852 21.5104 3.2101 21.8731 3.2101H25.1394C25.5026 3.2101 25.8091 3.33845 26.0593 3.59502C26.3099 3.85166 26.4351 4.15511 26.4351 4.50558V7.60284Z" fill="#51511B"/>
</g>
</svg>
